<mxfile host="app.diagrams.net" modified="2023-03-15T01:36:26.684Z" agent="5.0 (Windows NT 10.0; Win64; x64) AppleWebKit/537.36 (KHTML, like Gecko) Chrome/111.0.0.0 Safari/537.36" etag="KiZqsvrt9ccAxpm_9cLm" version="21.0.6" type="github">
  <diagram name="Page-1" id="SJ3SHm_mBdzL5lyOL39e">
    <mxGraphModel dx="1114" dy="576" grid="1" gridSize="10" guides="1" tooltips="1" connect="1" arrows="1" fold="1" page="1" pageScale="1" pageWidth="850" pageHeight="1100" math="0" shadow="0">
      <root>
        <mxCell id="0" />
        <mxCell id="1" parent="0" />
        <mxCell id="PchzRQhWJAXJl0lREUDF-1" value="dsfasd" style="whiteSpace=wrap;html=1;aspect=fixed;" vertex="1" parent="1">
          <mxGeometry x="370" y="190" width="210" height="210" as="geometry" />
        </mxCell>
        <mxCell id="PchzRQhWJAXJl0lREUDF-3" style="edgeStyle=orthogonalEdgeStyle;rounded=0;orthogonalLoop=1;jettySize=auto;html=1;entryX=0;entryY=0.5;entryDx=0;entryDy=0;" edge="1" parent="1" source="PchzRQhWJAXJl0lREUDF-2" target="PchzRQhWJAXJl0lREUDF-1">
          <mxGeometry relative="1" as="geometry" />
        </mxCell>
        <mxCell id="PchzRQhWJAXJl0lREUDF-2" value="" style="whiteSpace=wrap;html=1;aspect=fixed;" vertex="1" parent="1">
          <mxGeometry x="70" y="220" width="80" height="80" as="geometry" />
        </mxCell>
      </root>
    </mxGraphModel>
  </diagram>
</mxfile>
